<?xml version="1.0" encoding="UTF-8"?>
<!-- Generator: visioncortex VTracer -->
<svg id="svg" version="1.1" xmlns="http://www.w3.org/2000/svg" style="display: block;" viewBox="0 0 585 585"><path d="M0 0 C193.05 0 386.1 0 585 0 C585 193.05 585 386.1 585 585 C391.95 585 198.9 585 0 585 C0 391.95 0 198.9 0 0 Z " transform="translate(0,0)" style="fill: #0A1031;"/><path d="M0 0 C1.98 0.33 3.96 0.66 6 1 C10.455 2.98 10.455 2.98 15 5 C24.24 9.29 33.48 13.58 43 18 C59.83 25.92 59.83 25.92 77 34 C85.25 37.63 93.5 41.26 102 45 C106.95 47.31 111.9 49.62 117 52 C120.63 53.65 124.26 55.3 128 57 C130.31 57.99 132.62 58.98 135 60 C138.3 61.65 141.6 63.3 145 65 C148.3 66.32 151.6 67.64 155 69 C155.99 69.66 156.98 70.32 158 71 C158 131.72 158 192.44 158 255 C156.35 256.65 154.7 258.3 153 260 C151.68 260.33 150.36 260.66 149 261 C146.03 261.99 143.06 262.98 140 264 C138.02 264.66 136.04 265.32 134 266 C133.01 266.99 132.02 267.98 131 269 C128.69 269.66 126.38 270.32 124 271 C120.04 272.98 116.08 274.96 112 277 C107.38 278.65 102.76 280.3 98 282 C96.02 283.32 94.04 284.64 92 286 C90.02 286.66 88.04 287.32 86 288 C81.545 289.98 81.545 289.98 77 292 C75.02 292.99 73.04 293.98 71 295 C67.7 296.65 64.4 298.3 61 300 C57.7 301.32 54.4 302.64 51 304 C47.535 305.98 47.535 305.98 44 308 C41.69 308.99 39.38 309.98 37 311 C33.37 312.65 29.74 314.3 26 316 C22.7 317.32 19.4 318.64 16 320 C12.04 321.98 12.04 321.98 8 324 C6.68 324.66 5.36 325.32 4 326 C2.68 325.67 1.36 325.34 0 325 C-0.66 324.34 -1.32 323.68 -2 323 C-3.65 322.67 -5.3 322.34 -7 322 C-8.98 321.01 -10.96 320.02 -13 319 C-14.98 318.01 -16.96 317.02 -19 316 C-22.3 314.68 -25.6 313.36 -29 312 C-33.29 310.02 -37.58 308.04 -42 306 C-45.3 304.68 -48.6 303.36 -52 302 C-55.3 300.68 -58.6 299.36 -62 298 C-62 297.34 -62 296.68 -62 296 C-63.65 295.67 -65.3 295.34 -67 295 C-69.97 293.68 -72.94 292.36 -76 291 C-79.63 289.35 -83.26 287.7 -87 286 C-90.465 284.515 -90.465 284.515 -94 283 C-94.66 282.34 -95.32 281.68 -96 281 C-97.98 280.67 -99.96 280.34 -102 280 C-102 279.34 -102 278.68 -102 278 C-103.65 277.67 -105.3 277.34 -107 277 C-108.32 276.67 -109.64 276.34 -111 276 C-111 275.34 -111 274.68 -111 274 C-113.31 273.67 -115.62 273.34 -118 273 C-118 272.34 -118 271.68 -118 271 C-119.65 270.67 -121.3 270.34 -123 270 C-129.93 267.03 -136.86 264.06 -144 261 C-146.64 259.68 -149.28 258.36 -152 257 C-152 195.62 -152 134.24 -152 71 C-149.03 69.35 -146.06 67.7 -143 66 C-140.69 65.01 -138.38 64.02 -136 63 C-125.77 58.38 -115.54 53.76 -105 49 C-100.05 46.69 -95.1 44.38 -90 42 C-81.09 37.71 -72.18 33.42 -63 29 C-51.12 23.555 -51.12 23.555 -39 18 C-36.69 17.01 -34.38 16.02 -32 15 C-23.09 10.71 -14.18 6.42 -5 2 C-2.525 1.01 -2.525 1.01 0 0 Z " transform="translate(290,138)" style="fill: #02021D;"/><path d="M0 0 C1.98 0.33 3.96 0.66 6 1 C10.455 2.98 10.455 2.98 15 5 C24.24 9.29 33.48 13.58 43 18 C59.83 25.92 59.83 25.92 77 34 C85.25 37.63 93.5 41.26 102 45 C106.95 47.31 111.9 49.62 117 52 C120.63 53.65 124.26 55.3 128 57 C130.31 57.99 132.62 58.98 135 60 C138.3 61.65 141.6 63.3 145 65 C148.3 66.32 151.6 67.64 155 69 C155.99 69.66 156.98 70.32 158 71 C158 131.72 158 192.44 158 255 C156.35 256.65 154.7 258.3 153 260 C151.68 260.33 150.36 260.66 149 261 C146.03 261.99 143.06 262.98 140 264 C138.02 264.66 136.04 265.32 134 266 C133.01 266.99 132.02 267.98 131 269 C128.69 269.66 126.38 270.32 124 271 C120.04 272.98 116.08 274.96 112 277 C107.38 278.65 102.76 280.3 98 282 C96.02 283.32 94.04 284.64 92 286 C90.02 286.66 88.04 287.32 86 288 C81.545 289.98 81.545 289.98 77 292 C75.02 292.99 73.04 293.98 71 295 C67.7 296.65 64.4 298.3 61 300 C57.7 301.32 54.4 302.64 51 304 C47.535 305.98 47.535 305.98 44 308 C41.69 308.99 39.38 309.98 37 311 C33.37 312.65 29.74 314.3 26 316 C22.7 317.32 19.4 318.64 16 320 C12.04 321.98 12.04 321.98 8 324 C6.68 324.66 5.36 325.32 4 326 C2.68 325.67 1.36 325.34 0 325 C-0.66 324.34 -1.32 323.68 -2 323 C-3.65 322.67 -5.3 322.34 -7 322 C-8.98 321.01 -10.96 320.02 -13 319 C-14.98 318.01 -16.96 317.02 -19 316 C-22.3 314.68 -25.6 313.36 -29 312 C-33.29 310.02 -37.58 308.04 -42 306 C-45.3 304.68 -48.6 303.36 -52 302 C-55.3 300.68 -58.6 299.36 -62 298 C-62 297.34 -62 296.68 -62 296 C-63.65 295.67 -65.3 295.34 -67 295 C-69.97 293.68 -72.94 292.36 -76 291 C-79.63 289.35 -83.26 287.7 -87 286 C-90.465 284.515 -90.465 284.515 -94 283 C-94.66 282.34 -95.32 281.68 -96 281 C-97.98 280.67 -99.96 280.34 -102 280 C-102 279.34 -102 278.68 -102 278 C-103.65 277.67 -105.3 277.34 -107 277 C-108.32 276.67 -109.64 276.34 -111 276 C-111 275.34 -111 274.68 -111 274 C-113.31 273.67 -115.62 273.34 -118 273 C-118 272.34 -118 271.68 -118 271 C-119.65 270.67 -121.3 270.34 -123 270 C-129.93 267.03 -136.86 264.06 -144 261 C-146.64 259.68 -149.28 258.36 -152 257 C-152 195.62 -152 134.24 -152 71 C-149.03 69.35 -146.06 67.7 -143 66 C-140.69 65.01 -138.38 64.02 -136 63 C-125.77 58.38 -115.54 53.76 -105 49 C-100.05 46.69 -95.1 44.38 -90 42 C-81.09 37.71 -72.18 33.42 -63 29 C-51.12 23.555 -51.12 23.555 -39 18 C-36.69 17.01 -34.38 16.02 -32 15 C-23.09 10.71 -14.18 6.42 -5 2 C-2.525 1.01 -2.525 1.01 0 0 Z M-1 30 C-7.27 32.97 -13.54 35.94 -20 39 C-23.3 40.65 -26.6 42.3 -30 44 C-42.87 49.94 -42.87 49.94 -56 56 C-57.65 56.99 -59.3 57.98 -61 59 C-64.3 60.32 -67.6 61.64 -71 63 C-76.28 65.31 -81.56 67.62 -87 70 C-92.61 72.97 -98.22 75.94 -104 79 C-107.3 80.32 -110.6 81.64 -114 83 C-114.495 83.495 -114.495 83.495 -115 84 C-115 136.14 -115 188.28 -115 242 C-109.555 244.475 -109.555 244.475 -104 247 C-98.555 249.475 -98.555 249.475 -93 252 C-91.35 252.66 -89.7 253.32 -88 254 C-81.07 257.465 -81.07 257.465 -74 261 C-72.35 261.66 -70.7 262.32 -69 263 C-65.7 264.32 -62.4 265.64 -59 267 C-55.7 268.65 -52.4 270.3 -49 272 C-46.36 272.99 -43.72 273.98 -41 275 C-39.35 275.99 -37.7 276.98 -36 278 C-33.36 278.99 -30.72 279.98 -28 281 C-25.69 282.32 -23.38 283.64 -21 285 C-17.04 286.485 -17.04 286.485 -13 288 C-10.36 289.32 -7.72 290.64 -5 292 C-2.03 293.485 -2.03 293.485 1 295 C2.98 295 4.96 295 7 295 C9.64 293.35 12.28 291.7 15 290 C19.455 288.02 19.455 288.02 24 286 C26.64 285.01 29.28 284.02 32 283 C34.97 281.35 37.94 279.7 41 278 C44.3 276.68 47.6 275.36 51 274 C53.97 272.35 56.94 270.7 60 269 C63.3 267.68 66.6 266.36 70 265 C78.58 261.04 87.16 257.08 96 253 C98.31 252.01 100.62 251.02 103 250 C108.61 247.36 114.22 244.72 120 242 C120.33 241.67 120.66 241.34 121 241 C121 189.19 121 137.38 121 84 C116.05 81.69 111.1 79.38 106 77 C104.02 76.01 102.04 75.02 100 74 C96.04 72.02 92.08 70.04 88 68 C84.7 66.68 81.4 65.36 78 64 C71.4 61.03 64.8 58.06 58 55 C56.35 54.01 54.7 53.02 53 52 C46.565 49.525 46.565 49.525 40 47 C35.38 44.69 30.76 42.38 26 40 C22.04 38.35 18.08 36.7 14 35 C13.34 35 12.68 35 12 35 C12 34.34 12 33.68 12 33 C9.69 32.01 7.38 31.02 5 30 C3.02 30 1.04 30 -1 30 Z " transform="translate(290,138)" style="fill: #321584;"/><path d="M0 0 C16.17 0 32.34 0 49 0 C52.63 2.97 56.26 5.94 60 9 C65.61 13.29 71.22 17.58 77 22 C82.28 26.29 87.56 30.58 93 35 C95.64 36.98 98.28 38.96 101 41 C102.32 40.34 103.64 39.68 105 39 C111.435 33.555 111.435 33.555 118 28 C123.28 24.04 128.56 20.08 134 16 C137.63 13.03 141.26 10.06 145 7 C147.64 5.02 150.28 3.04 153 1 C168.84 1 184.68 1 201 1 C201 2.65 201 4.3 201 6 C197.37 8.97 193.74 11.94 190 15 C188.02 16.32 186.04 17.64 184 19 C183.505 86.815 183.505 86.815 183 156 C175.41 156 167.82 156 160 156 C160 120.03 160 84.06 160 47 C159.34 47 158.68 47 158 47 C157.67 47.99 157.34 48.98 157 50 C154.36 52.31 151.72 54.62 149 57 C142.07 62.94 142.07 62.94 135 69 C133.02 70.98 133.02 70.98 131 73 C128.36 75.31 125.72 77.62 123 80 C119.37 82.97 115.74 85.94 112 89 C109.36 91.31 106.72 93.62 104 96 C102.515 96.495 102.515 96.495 101 97 C96.71 93.37 92.42 89.74 88 86 C84.37 83.03 80.74 80.06 77 77 C74.69 74.69 72.38 72.38 70 70 C66.04 66.535 66.04 66.535 62 63 C57.38 59.04 52.76 55.08 48 51 C46.68 50.01 45.36 49.02 44 48 C44 82.98 44 117.96 44 154 C42.68 154.33 41.36 154.66 40 155 C35.38 155.33 30.76 155.66 26 156 C17.42 156 8.84 156 0 156 C0 104.52 0 53.04 0 0 Z " transform="translate(191,218)" style="fill: #7541D0;"/><path d="M0 0 C1.98 0 3.96 0 6 0 C8.31 0.99 10.62 1.98 13 3 C13 3.66 13 4.32 13 5 C15.97 5.99 18.94 6.98 22 8 C24.31 8.99 26.62 9.98 29 11 C30.65 11.99 32.3 12.98 34 14 C36.31 14.99 38.62 15.98 41 17 C45.95 18.98 50.9 20.96 56 23 C60.62 25.31 65.24 27.62 70 30 C74.95 32.31 79.9 34.62 85 37 C87.64 37.99 90.28 38.98 93 40 C95.64 41.32 98.28 42.64 101 44 C101.33 44.66 101.66 45.32 102 46 C101.34 46 100.68 46 100 46 C100 46.66 100 47.32 100 48 C101.32 48.33 102.64 48.66 104 49 C104 100.15 104 151.3 104 204 C103.67 204.66 103.34 205.32 103 206 C101.68 206.33 100.36 206.66 99 207 C86.79 207 74.58 207 62 207 C62 206.67 62 206.34 62 206 C69.59 206 77.18 206 85 206 C85 160.79 85 115.58 85 69 C90.61 64.71 96.22 60.42 102 56 C102.33 54.35 102.66 52.7 103 51 C87.16 51.33 71.32 51.66 55 52 C52.525 53.98 52.525 53.98 50 56 C43.07 61.445 43.07 61.445 36 67 C30.06 71.62 24.12 76.24 18 81 C13.71 84.63 9.42 88.26 5 92 C3.35 91.34 1.7 90.68 0 90 C-4.29 86.37 -8.58 82.74 -13 79 C-18.28 75.04 -23.56 71.08 -29 67 C-33.95 63.04 -38.9 59.08 -44 55 C-46.475 53.02 -46.475 53.02 -49 51 C-64.84 50.67 -80.68 50.34 -97 50 C-97.33 48.68 -97.66 47.36 -98 46 C-91.07 42.7 -84.14 39.4 -77 36 C-71.06 33.525 -71.06 33.525 -65 31 C-60.05 28.69 -55.1 26.38 -50 24 C-44.39 21.36 -38.78 18.72 -33 16 C-26.07 12.535 -26.07 12.535 -19 9 C-12.73 6.03 -6.46 3.06 0 0 Z " transform="translate(289,168)" style="fill: #090623;"/><path d="M0 0 C1.98 0.33 3.96 0.66 6 1 C10.455 2.98 10.455 2.98 15 5 C24.24 9.29 33.48 13.58 43 18 C59.83 25.92 59.83 25.92 77 34 C85.25 37.63 93.5 41.26 102 45 C106.95 47.31 111.9 49.62 117 52 C120.63 53.65 124.26 55.3 128 57 C130.31 57.99 132.62 58.98 135 60 C138.3 61.65 141.6 63.3 145 65 C147.64 65.99 150.28 66.98 153 68 C153.33 68.99 153.66 69.98 154 71 C152.515 71.99 152.515 71.99 151 73 C150.67 116.89 150.34 160.78 150 206 C150 217.88 150 229.76 150 242 C149.34 242.99 148.68 243.98 148 245 C144.37 245.99 140.74 246.98 137 248 C136.505 161.375 136.505 161.375 136 73 C132.04 71.35 128.08 69.7 124 68 C115.09 64.04 106.18 60.08 97 56 C93.7 54.35 90.4 52.7 87 51 C80.565 48.525 80.565 48.525 74 46 C67.07 42.535 67.07 42.535 60 39 C55.38 37.02 50.76 35.04 46 33 C43.525 31.515 43.525 31.515 41 30 C39.35 29.34 37.7 28.68 36 28 C31.38 25.69 26.76 23.38 22 21 C15.565 18.525 15.565 18.525 9 16 C7.02 15.01 7.02 15.01 5 14 C3.02 14 1.04 14 -1 14 C-3.97 15.65 -6.94 17.3 -10 19 C-13.3 20.32 -16.6 21.64 -20 23 C-26.6 25.97 -33.2 28.94 -40 32 C-43.96 33.98 -47.92 35.96 -52 38 C-64.375 43.445 -64.375 43.445 -77 49 C-84.92 52.96 -84.92 52.96 -93 57 C-103.395 61.455 -103.395 61.455 -114 66 C-116.31 67.32 -118.62 68.64 -121 70 C-123.31 70.99 -125.62 71.98 -128 73 C-129.32 73 -130.64 73 -132 73 C-132 130.75 -132 188.5 -132 248 C-133.98 247.67 -135.96 247.34 -138 247 C-142.62 246.34 -147.24 245.68 -152 245 C-152 187.58 -152 130.16 -152 71 C-149.03 69.35 -146.06 67.7 -143 66 C-140.69 65.01 -138.38 64.02 -136 63 C-125.77 58.38 -115.54 53.76 -105 49 C-100.05 46.69 -95.1 44.38 -90 42 C-81.09 37.71 -72.18 33.42 -63 29 C-51.12 23.555 -51.12 23.555 -39 18 C-36.69 17.01 -34.38 16.02 -32 15 C-23.09 10.71 -14.18 6.42 -5 2 C-2.525 1.01 -2.525 1.01 0 0 Z " transform="translate(290,138)" style="fill: #A057E0;"/><path d="M0 0 C16.17 0 32.34 0 49 0 C55.93 5.445 55.93 5.445 63 11 C67.62 14.63 72.24 18.26 77 22 C81.62 25.63 86.24 29.26 91 33 C93.97 35.31 96.94 37.62 100 40 C101.32 39.34 102.64 38.68 104 38 C110.435 32.555 110.435 32.555 117 27 C122.28 23.04 127.56 19.08 133 15 C136.63 12.03 140.26 9.06 144 6 C146.64 4.02 149.28 2.04 152 0 C167.84 0 183.68 0 200 0 C200 1.65 200 3.3 200 5 C196.37 7.97 192.74 10.94 189 14 C185.535 16.475 185.535 16.475 182 19 C181.67 19.66 181.34 20.32 181 21 C171.76 21.33 162.52 21.66 153 22 C148.71 25.3 144.42 28.6 140 32 C133.73 36.62 127.46 41.24 121 46 C116.71 49.3 112.42 52.6 108 56 C106.02 57.32 104.04 58.64 102 60 C100.02 59.505 100.02 59.505 98 59 C94.37 56.36 90.74 53.72 87 51 C86.01 50.01 85.02 49.02 84 48 C81.69 46.68 79.38 45.36 77 44 C72.05 39.545 72.05 39.545 67 35 C64.03 33.02 61.06 31.04 58 29 C55.69 27.02 53.38 25.04 51 23 C50.01 22.67 49.02 22.34 48 22 C41.07 22 34.14 22 27 22 C26.67 22.33 26.34 22.66 26 23 C25.67 36.2 25.34 49.4 25 63 C24.67 93.03 24.34 123.06 24 154 C16.41 154 8.82 154 1 154 C0.67 153.67 0.34 153.34 0 153 C0 143.76 0 134.52 0 125 C0.33 120.05 0.66 115.1 1 110 C1 105.38 1 100.76 1 96 C0.67 86.43 0.34 76.86 0 67 C0 44.89 0 22.78 0 0 Z " transform="translate(192,219)" style="fill: #BE61EF;"/><path d="M0 0 C16.17 0 32.34 0 49 0 C49 0.33 49 0.66 49 1 C33.16 1 17.32 1 1 1 C1.33 23.11 1.66 45.22 2 68 C2.33 77.57 2.66 87.14 3 97 C3 101.62 3 106.24 3 111 C2.67 115.95 2.34 120.9 2 126 C2 135.24 2 144.48 2 154 C13.385 154.495 13.385 154.495 25 155 C25 124.97 25 94.94 25 64 C25.33 50.8 25.66 37.6 26 24 C26.66 23.34 27.32 22.68 28 22 C34.93 22 41.86 22 49 22 C51.31 23.32 53.62 24.64 56 26 C58.31 27.98 60.62 29.96 63 32 C65.64 33.98 68.28 35.96 71 38 C74.63 40.97 78.26 43.94 82 47 C83.65 47.99 85.3 48.98 87 50 C91.95 53.96 91.95 53.96 97 58 C98.485 58.99 98.485 58.99 100 60 C101.65 60 103.3 60 105 60 C104.01 61.98 103.02 63.96 102 66 C102 74.25 102 82.5 102 91 C100.35 91.99 98.7 92.98 97 94 C92.05 89.71 87.1 85.42 82 81 C78.04 77.37 74.08 73.74 70 70 C66.04 66.535 66.04 66.535 62 63 C57.38 59.04 52.76 55.08 48 51 C46.68 50.01 45.36 49.02 44 48 C44 82.98 44 117.96 44 154 C42.68 154.33 41.36 154.66 40 155 C35.38 155.33 30.76 155.66 26 156 C17.42 156 8.84 156 0 156 C0 104.52 0 53.04 0 0 Z " transform="translate(191,218)" style="fill: #6937C2;"/><path d="M0 0 C2.97 0.495 2.97 0.495 6 1 C7.32 1.66 8.64 2.32 10 3 C10 3.66 10 4.32 10 5 C12.97 5.99 15.94 6.98 19 8 C21.97 9.98 24.94 11.96 28 14 C29.98 15.65 31.96 17.3 34 19 C34 34.18 34 49.36 34 65 C32.35 66.32 30.7 67.64 29 69 C25.7 70.65 22.4 72.3 19 74 C11.08 78.455 11.08 78.455 3 83 C1.35 82.67 -0.3 82.34 -2 82 C-10.58 77.38 -19.16 72.76 -28 68 C-28.66 67.34 -29.32 66.68 -30 66 C-30 49.83 -30 33.66 -30 17 C-23.73 13.37 -17.46 9.74 -11 6 C-7.37 4.02 -3.74 2.04 0 0 Z " transform="translate(290,486)" style="fill: #6C44D8;"/><path d="M0 0 C2.475 0.495 2.475 0.495 5 1 C11.435 4.96 11.435 4.96 18 9 C21.3 10.65 24.6 12.3 28 14 C29.98 15.32 31.96 16.64 34 18 C34 32.19 34 46.38 34 61 C30.04 63.475 30.04 63.475 26 66 C18.575 69.96 18.575 69.96 11 74 C10.34 74 9.68 74 9 74 C9 74.66 9 75.32 9 76 C7.02 76.495 7.02 76.495 5 77 C2.36 77 -0.28 77 -3 77 C-11.25 72.71 -19.5 68.42 -28 64 C-28.99 63.34 -29.98 62.68 -31 62 C-31 47.15 -31 32.3 -31 17 C-26.38 14.36 -21.76 11.72 -17 9 C-13.37 7.02 -9.74 5.04 -6 3 C-4.02 2.01 -2.04 1.02 0 0 Z " transform="translate(291,27)" style="fill: #CF65EE;"/><path d="M0 0 C2.97 0.495 2.97 0.495 6 1 C9.96 2.98 13.92 4.96 18 7 C18 7.66 18 8.32 18 9 C20.475 9.495 20.475 9.495 23 10 C25.475 11.485 25.475 11.485 28 13 C30.475 13.99 30.475 13.99 33 15 C33.99 15.99 33.99 15.99 35 17 C35 31.52 35 46.04 35 61 C32.03 61.495 32.03 61.495 29 62 C29 62.66 29 63.32 29 64 C23.06 67.3 17.12 70.6 11 74 C8.525 74.495 8.525 74.495 6 75 C6 75.66 6 76.32 6 77 C3.03 76.67 0.06 76.34 -3 76 C-10.26 72.04 -17.52 68.08 -25 64 C-26.65 63.01 -28.3 62.02 -30 61 C-30 46.48 -30 31.96 -30 17 C-27.36 15.35 -24.72 13.7 -22 12 C-14.74 8.04 -7.48 4.08 0 0 Z " transform="translate(111,394)" style="fill: #6C3ED1;"/><path d="M0 0 C2.97 0.495 2.97 0.495 6 1 C13.59 5.29 21.18 9.58 29 14 C31.475 14.495 31.475 14.495 34 15 C34.495 15.99 34.495 15.99 35 17 C35 31.19 35 45.38 35 60 C28.73 63.3 22.46 66.6 16 70 C14.02 71.32 12.04 72.64 10 74 C7.525 74.99 7.525 74.99 5 76 C3.02 76.495 3.02 76.495 1 77 C-7.58 72.71 -16.16 68.42 -25 64 C-26.65 62.68 -28.3 61.36 -30 60 C-30 45.81 -30 31.62 -30 17 C-27.03 15.02 -24.06 13.04 -21 11 C-16.05 8.36 -11.1 5.72 -6 3 C-4.02 2.01 -2.04 1.02 0 0 Z " transform="translate(111,122)" style="fill: #B165E1;"/><path d="M0 0 C2.31 0.33 4.62 0.66 7 1 C15.415 5.455 15.415 5.455 24 10 C24.99 10.99 25.98 11.98 27 13 C30.96 15.475 30.96 15.475 35 18 C35 32.19 35 46.38 35 61 C30.38 63.64 25.76 66.28 21 69 C17.04 69.99 17.04 69.99 13 71 C12.505 72.485 12.505 72.485 12 74 C9.69 74.99 7.38 75.98 5 77 C3.35 77 1.7 77 0 77 C-7.26 73.04 -14.52 69.08 -22 65 C-24.31 63.68 -26.62 62.36 -29 61 C-29 46.15 -29 31.3 -29 16 C-20.42 11.38 -11.84 6.76 -3 2 C-2.01 1.34 -1.02 0.68 0 0 Z " transform="translate(468,394)" style="fill: #693BD3;"/><path d="M0 0 C2.97 0.495 2.97 0.495 6 1 C11.61 4.3 17.22 7.6 23 11 C26.3 12.32 29.6 13.64 33 15 C33.495 15.495 33.495 15.495 34 16 C34 30.19 34 44.38 34 59 C33.01 60.32 32.02 61.64 31 63 C27.37 64.32 23.74 65.64 20 67 C19.34 67 18.68 67 18 67 C18 67.66 18 68.32 18 69 C13.71 71.31 9.42 73.62 5 76 C3.02 76 1.04 76 -1 76 C-2.32 75.34 -3.64 74.68 -5 74 C-5 73.34 -5 72.68 -5 72 C-6.32 72 -7.64 72 -9 72 C-9 71.34 -9 70.68 -9 70 C-11.97 69.01 -14.94 68.02 -18 67 C-21.63 65.02 -25.26 63.04 -29 61 C-29.33 60.67 -29.66 60.34 -30 60 C-30 45.81 -30 31.62 -30 17 C-25.71 14.36 -21.42 11.72 -17 9 C-12.38 6.36 -7.76 3.72 -3 1 C-2.01 0.67 -1.02 0.34 0 0 Z " transform="translate(469,122)" style="fill: #9C50DD;"/><path d="M0 0 C1.98 0 3.96 0 6 0 C11.28 2.64 16.56 5.28 22 8 C28.27 10.97 34.54 13.94 41 17 C43.31 17.99 45.62 18.98 48 20 C52.29 21.98 56.58 23.96 61 26 C65.29 27.98 69.58 29.96 74 32 C76.31 32.99 78.62 33.98 81 35 C84.3 36.65 87.6 38.3 91 40 C95.95 41.98 95.95 41.98 101 44 C102.65 44.99 104.3 45.98 106 47 C106 55.58 106 64.16 106 73 C104.35 73 102.7 73 101 73 C101 72.34 101 71.68 101 71 C97.37 70.01 93.74 69.02 90 68 C87.69 66.68 85.38 65.36 83 64 C78.71 62.35 74.42 60.7 70 59 C64.72 56.69 59.44 54.38 54 52 C48.555 49.525 48.555 49.525 43 47 C43 46.34 43 45.68 43 45 C40.03 44.505 40.03 44.505 37 44 C35.35 43.01 33.7 42.02 32 41 C28.7 39.68 25.4 38.36 22 37 C13.09 33.04 13.09 33.04 4 29 C-0.95 26.69 -5.9 24.38 -11 22 C-14.63 20.02 -18.26 18.04 -22 16 C-21.67 15.01 -21.34 14.02 -21 13 C-15.72 9.7 -10.44 6.4 -5 3 C-3.35 2.01 -1.7 1.02 0 0 Z " transform="translate(320,108)" style="fill: #4B1F8F;"/><path d="M0 0 C1.65 0.66 3.3 1.32 5 2 C8.96 4.475 8.96 4.475 13 7 C16.63 9.64 20.26 12.28 24 15 C24 15.99 24 16.98 24 18 C14.43 22.29 4.86 26.58 -5 31 C-12.92 34.96 -12.92 34.96 -21 39 C-27.6 41.97 -34.2 44.94 -41 48 C-44.3 49.65 -47.6 51.3 -51 53 C-56.94 55.475 -56.94 55.475 -63 58 C-66.96 59.98 -70.92 61.96 -75 64 C-78.96 65.65 -82.92 67.3 -87 69 C-90.96 70.98 -94.92 72.96 -99 75 C-99.66 75 -100.32 75 -101 75 C-101 66.09 -101 57.18 -101 48 C-96.05 45.36 -91.1 42.72 -86 40 C-81.05 37.69 -76.1 35.38 -71 33 C-68.69 32.01 -66.38 31.02 -64 30 C-56.41 26.37 -48.82 22.74 -41 19 C-38.69 18.01 -36.38 17.02 -34 16 C-31.36 14.68 -28.72 13.36 -26 12 C-22.7 10.68 -19.4 9.36 -16 8 C-12.37 6.02 -8.74 4.04 -5 2 C-3.35 1.34 -1.7 0.68 0 0 Z " transform="translate(261,107)" style="fill: #552593;"/><path d="M0 0 C1.65 0.33 3.3 0.66 5 1 C9.455 2.98 9.455 2.98 14 5 C17.63 6.65 21.26 8.3 25 10 C27.475 10.99 27.475 10.99 30 12 C36.93 15.465 36.93 15.465 44 19 C46.475 19.99 46.475 19.99 49 21 C53.95 22.98 53.95 22.98 59 25 C62.3 26.65 65.6 28.3 69 30 C71.64 30.99 74.28 31.98 77 33 C78.65 33.99 80.3 34.98 82 36 C84.64 36.99 87.28 37.98 90 39 C92.31 40.32 94.62 41.64 97 43 C99.64 43.99 102.28 44.98 105 46 C107.64 47.32 110.28 48.64 113 50 C114.98 50.99 116.96 51.98 119 53 C120.98 53 122.96 53 125 53 C127.64 51.35 130.28 49.7 133 48 C135.97 46.68 138.94 45.36 142 44 C144.64 43.01 147.28 42.02 150 41 C152.97 39.35 155.94 37.7 159 36 C162.3 34.68 165.6 33.36 169 32 C173.455 29.525 173.455 29.525 178 27 C181.3 25.68 184.6 24.36 188 23 C196.58 19.04 205.16 15.08 214 11 C216.31 10.01 218.62 9.02 221 8 C225.95 5.69 230.9 3.38 236 1 C238.64 1.33 241.28 1.66 244 2 C245.98 3.32 247.96 4.64 250 6 C249.67 6.99 249.34 7.98 249 9 C243.06 11.64 237.12 14.28 231 17 C227.04 18.65 223.08 20.3 219 22 C212.07 25.465 212.07 25.465 205 29 C201.7 30.32 198.4 31.64 195 33 C190.05 35.31 185.1 37.62 180 40 C177.525 41.485 177.525 41.485 175 43 C171.7 44.32 168.4 45.64 165 47 C159.06 49.64 153.12 52.28 147 55 C143.7 56.65 140.4 58.3 137 60 C134.69 60.99 132.38 61.98 130 63 C127.69 63.99 125.38 64.98 123 66 C120.69 65.67 118.38 65.34 116 65 C113.36 63.68 110.72 62.36 108 61 C103.05 59.02 103.05 59.02 98 57 C95.36 55.68 92.72 54.36 90 53 C82.08 49.7 74.16 46.4 66 43 C63.69 41.68 61.38 40.36 59 39 C55.7 37.68 52.4 36.36 49 35 C46.36 33.68 43.72 32.36 41 31 C37.7 29.68 34.4 28.36 31 27 C26.05 24.69 21.1 22.38 16 20 C12.04 18.35 8.08 16.7 4 15 C1.36 13.68 -1.28 12.36 -4 11 C-6.31 10.01 -8.62 9.02 -11 8 C-9.68 6.68 -8.36 5.36 -7 4 C-4.69 2.68 -2.38 1.36 0 0 Z " transform="translate(172,379)" style="fill: #6A3DD3;"/><path d="M0 0 C1.98 0.66 3.96 1.32 6 2 C14.415 5.465 14.415 5.465 23 9 C28.28 11.64 33.56 14.28 39 17 C47.25 20.63 55.5 24.26 64 28 C68.95 30.31 73.9 32.62 79 35 C83.455 36.98 83.455 36.98 88 39 C93.445 41.475 93.445 41.475 99 44 C103.62 46.31 108.24 48.62 113 51 C116.96 52.65 120.92 54.3 125 56 C125.99 57.98 125.99 57.98 127 60 C124.36 61.98 121.72 63.96 119 66 C117.02 66.99 117.02 66.99 115 68 C113.02 69.485 113.02 69.485 111 71 C108.36 71.99 105.72 72.98 103 74 C97.39 71.36 91.78 68.72 86 66 C83.36 65.01 80.72 64.02 78 63 C78 62.34 78 61.68 78 61 C76.35 60.67 74.7 60.34 73 60 C68.71 58.02 64.42 56.04 60 54 C58.68 53.67 57.36 53.34 56 53 C56 52.34 56 51.68 56 51 C53.03 50.34 50.06 49.68 47 49 C44.36 47.35 41.72 45.7 39 44 C33.72 42.02 28.44 40.04 23 38 C23 37.34 23 36.68 23 36 C19.535 35.505 19.535 35.505 16 35 C16 34.34 16 33.68 16 33 C14.35 32.67 12.7 32.34 11 32 C7.37 30.35 3.74 28.7 0 27 C0 18.09 0 9.18 0 0 Z " transform="translate(160,421)" style="fill: #260F81;"/><path d="M0 0 C5.28 0 10.56 0 16 0 C16.66 0.33 17.32 0.66 18 1 C18 58.75 18 116.5 18 176 C16.02 175.67 14.04 175.34 12 175 C8.04 174.34 4.08 173.68 0 173 C0 115.91 0 58.82 0 0 Z " transform="translate(140,210)" style="fill: #8955E3;"/><path d="M0 0 C0.99 0 1.98 0 3 0 C3 8.58 3 17.16 3 26 C1.35 26.99 -0.3 27.98 -2 29 C-3.98 29.66 -5.96 30.32 -8 31 C-10.97 32.32 -13.94 33.64 -17 35 C-19.97 36.65 -22.94 38.3 -26 40 C-27.98 40.66 -29.96 41.32 -32 42 C-34.97 43.32 -37.94 44.64 -41 46 C-44.63 47.98 -48.26 49.96 -52 52 C-55.63 53.32 -59.26 54.64 -63 56 C-66.63 57.98 -70.26 59.96 -74 62 C-76.97 63.32 -79.94 64.64 -83 66 C-86.96 67.65 -90.92 69.3 -95 71 C-95.33 71.33 -95.66 71.66 -96 72 C-97.98 72 -99.96 72 -102 72 C-105.3 68.7 -108.6 65.4 -112 62 C-114.31 60.35 -116.62 58.7 -119 57 C-116.525 54.525 -116.525 54.525 -114 52 C-105.42 48.04 -96.84 44.08 -88 40 C-83.71 38.02 -79.42 36.04 -75 34 C-73.68 34 -72.36 34 -71 34 C-71 33.34 -71 32.68 -71 32 C-62.75 28.37 -54.5 24.74 -46 21 C-39.07 17.7 -32.14 14.4 -25 11 C-21.7 9.68 -18.4 8.36 -15 7 C-11.04 5.02 -7.08 3.04 -3 1 C-2.01 0.67 -1.02 0.34 0 0 Z " transform="translate(423,421)" style="fill: #1A0977;"/><path d="M0 0 C15.84 0 31.68 0 48 0 C48 50.82 48 101.64 48 154 C47.67 154.66 47.34 155.32 47 156 C45.68 156.33 44.36 156.66 43 157 C30.79 157 18.58 157 6 157 C6 156.67 6 156.34 6 156 C13.59 156 21.18 156 29 156 C29 110.79 29 65.58 29 19 C34.61 14.71 40.22 10.42 46 6 C46.33 4.35 46.66 2.7 47 1 C31.49 1 15.98 1 0 1 C0 0.67 0 0.34 0 0 Z " transform="translate(345,218)" style="fill: #2B1281;"/><path d="M0 0 C2.475 0.99 2.475 0.99 5 2 C7.31 2.33 9.62 2.66 12 3 C12.33 3.99 12.66 4.98 13 6 C13 64.08 13 122.16 13 182 C7.06 182.99 7.06 182.99 1 184 C0.505 178.06 0.505 178.06 0 172 C0 115.24 0 58.48 0 0 Z " transform="translate(463,209)" style="fill: #8753DB;"/><path d="M0 0 C1.65 0.99 3.3 1.98 5 3 C5.99 3.66 6.98 4.32 8 5 C9.65 5.33 11.3 5.66 13 6 C13 62.43 13 118.86 13 177 C8.71 177.99 4.42 178.98 0 180 C0 120.6 0 61.2 0 0 Z " transform="translate(102,214)" style="fill: #8352E4;"/><path d="M0 0 C2.475 0.495 2.475 0.495 5 1 C8.465 2.485 8.465 2.485 12 4 C14.475 5.485 14.475 5.485 17 7 C19.31 7.99 21.62 8.98 24 10 C24 21.55 24 33.1 24 45 C20.04 47.475 20.04 47.475 16 50 C13.36 50.99 10.72 51.98 8 53 C6.68 53.99 5.36 54.98 4 56 C2.35 56 0.7 56 -1 56 C-6.28 52.7 -11.56 49.4 -17 46 C-17.33 45.67 -17.66 45.34 -18 45 C-18 33.45 -18 21.9 -18 10 C-12.06 6.7 -6.12 3.4 0 0 Z " transform="translate(290,500)" style="fill: #07052B;"/><path d="M0 0 C1.65 0 3.3 0 5 0 C11.93 3.96 11.93 3.96 19 8 C20.98 8.99 22.96 9.98 25 11 C25 20.24 25 29.48 25 39 C18.07 42.96 11.14 46.92 4 51 C2.35 50.67 0.7 50.34 -1 50 C-3.64 48.35 -6.28 46.7 -9 45 C-12.465 43.515 -12.465 43.515 -16 42 C-17.32 41.01 -18.64 40.02 -20 39 C-20 30.09 -20 21.18 -20 12 C-16.7 10.02 -13.4 8.04 -10 6 C-6.7 4.02 -3.4 2.04 0 0 Z " transform="translate(111,135)" style="fill: #0F092C;"/><path d="M0 0 C1.98 0 3.96 0 6 0 C14.415 4.455 14.415 4.455 23 9 C23.99 9.33 24.98 9.66 26 10 C26 19.9 26 29.8 26 40 C18.08 43.96 18.08 43.96 10 48 C8.35 48.99 6.7 49.98 5 51 C3.68 50.67 2.36 50.34 1 50 C-5.27 47.03 -11.54 44.06 -18 41 C-18 30.77 -18 20.54 -18 10 C-12.39 7.03 -6.78 4.06 -1 1 C-0.67 0.67 -0.34 0.34 0 0 Z " transform="translate(110,408)" style="fill: #0A062D;"/><path d="M0 0 C2.97 0.495 2.97 0.495 6 1 C9.3 2.98 12.6 4.96 16 7 C18.64 8.32 21.28 9.64 24 11 C24.495 19.415 24.495 19.415 25 28 C25 32.29 25 36.58 25 41 C17.08 44.96 17.08 44.96 9 49 C7.68 49.66 6.36 50.32 5 51 C3.35 51 1.7 51 0 51 C-4.455 48.525 -4.455 48.525 -9 46 C-13.95 44.02 -13.95 44.02 -19 42 C-19 31.77 -19 21.54 -19 11 C-13.06 7.7 -7.12 4.4 -1 1 C-0.67 0.67 -0.34 0.34 0 0 Z " transform="translate(469,407)" style="fill: #160B40;"/><path d="M0 0 C2.97 0.495 2.97 0.495 6 1 C10.95 3.64 15.9 6.28 21 9 C21.99 9.33 22.98 9.66 24 10 C24 20.23 24 30.46 24 41 C16.08 44.96 16.08 44.96 8 49 C6.02 49.495 6.02 49.495 4 50 C4 50.66 4 51.32 4 52 C2.35 51.67 0.7 51.34 -1 51 C-4.3 49.02 -7.6 47.04 -11 45 C-13.64 43.68 -16.28 42.36 -19 41 C-19 31.1 -19 21.2 -19 11 C-14.71 8.36 -10.42 5.72 -6 3 C-4.02 2.01 -2.04 1.02 0 0 Z " transform="translate(290,41)" style="fill: #0E0829;"/><path d="M0 0 C2.475 0.495 2.475 0.495 5 1 C9.455 3.475 9.455 3.475 14 6 C16.31 6.99 18.62 7.98 21 9 C21.99 9.66 22.98 10.32 24 11 C24 20.57 24 30.14 24 40 C17.4 43.63 10.8 47.26 4 51 C2.35 50.67 0.7 50.34 -1 50 C-5.95 47.36 -10.9 44.72 -16 42 C-16.99 41.34 -17.98 40.68 -19 40 C-19 30.43 -19 20.86 -19 11 C-16.36 9.35 -13.72 7.7 -11 6 C-7.37 4.02 -3.74 2.04 0 0 Z " transform="translate(469,135)" style="fill: #0D0628;"/><path d="M0 0 C1.32 0.66 2.64 1.32 4 2 C7.3 2.66 10.6 3.32 14 4 C14.33 5.32 14.66 6.64 15 8 C15.99 7.01 16.98 6.02 18 5 C18.66 5 19.32 5 20 5 C20 64.4 20 123.8 20 185 C18.68 184.67 17.36 184.34 16 184 C15.01 183.67 14.02 183.34 13 183 C13 126.57 13 70.14 13 12 C10.69 11.67 8.38 11.34 6 11 C4.35 9.68 2.7 8.36 1 7 C0.67 66.07 0.34 125.14 0 186 C-0.33 186 -0.66 186 -1 186 C-1 125.28 -1 64.56 -1 2 C-0.67 1.34 -0.34 0.68 0 0 Z " transform="translate(102,208)" style="fill: #401B93;"/><path d="M0 0 C0.33 0 0.66 0 1 0 C1 60.72 1 121.44 1 184 C-0.98 184.99 -0.98 184.99 -3 186 C-4.32 184.02 -5.64 182.04 -7 180 C-7.33 121.59 -7.66 63.18 -8 3 C-10.31 3 -12.62 3 -15 3 C-15 2.67 -15 2.34 -15 2 C-12.03 2 -9.06 2 -6 2 C-6 2.66 -6 3.32 -6 4 C-4.35 3.01 -2.7 2.02 -1 1 C-0.67 0.67 -0.34 0.34 0 0 Z " transform="translate(483,209)" style="fill: #200A77;"/><path d="M0 0 C2.475 0.495 2.475 0.495 5 1 C10.61 3.31 16.22 5.62 22 8 C27.28 10.64 32.56 13.28 38 16 C46.25 19.63 54.5 23.26 63 27 C67.95 29.31 72.9 31.62 78 34 C82.455 35.98 82.455 35.98 87 38 C92.445 40.475 92.445 40.475 98 43 C102.62 45.31 107.24 47.62 112 50 C113.65 50.99 115.3 51.98 117 53 C116.67 54.32 116.34 55.64 116 57 C114.02 57.99 114.02 57.99 112 59 C109.69 58.67 107.38 58.34 105 58 C102.03 57.01 99.06 56.02 96 55 C93.36 53.35 90.72 51.7 88 50 C83.05 48.02 83.05 48.02 78 46 C73.71 44.02 69.42 42.04 65 40 C61.535 38.515 61.535 38.515 58 37 C53.545 35.02 53.545 35.02 49 33 C45.37 31.35 41.74 29.7 38 28 C29.09 24.04 20.18 20.08 11 16 C9.02 15.01 7.04 14.02 5 13 C3.35 12.67 1.7 12.34 0 12 C0 8.04 0 4.08 0 0 Z " transform="translate(161,422)" style="fill: #6A3CD2;"/><path d="M0 0 C0.99 0 1.98 0 3 0 C3 3.63 3 7.26 3 11 C-0.96 12.98 -0.96 12.98 -5 15 C-9.29 16.65 -13.58 18.3 -18 20 C-25.92 23.96 -25.92 23.96 -34 28 C-37.3 29.32 -40.6 30.64 -44 32 C-45.65 32.99 -47.3 33.98 -49 35 C-52.3 36.32 -55.6 37.64 -59 39 C-62.3 40.65 -65.6 42.3 -69 44 C-71.31 44.99 -73.62 45.98 -76 47 C-79.63 48.65 -83.26 50.3 -87 52 C-94.92 55.96 -94.92 55.96 -103 60 C-104.32 59.67 -105.64 59.34 -107 59 C-108.98 57.35 -110.96 55.7 -113 54 C-111.68 52.68 -110.36 51.36 -109 50 C-97.78 44.72 -86.56 39.44 -75 34 C-73.68 34 -72.36 34 -71 34 C-71 33.34 -71 32.68 -71 32 C-62.75 28.37 -54.5 24.74 -46 21 C-39.07 17.7 -32.14 14.4 -25 11 C-21.7 9.68 -18.4 8.36 -15 7 C-11.04 5.02 -7.08 3.04 -3 1 C-2.01 0.67 -1.02 0.34 0 0 Z " transform="translate(423,421)" style="fill: #6038C9;"/><path d="M0 0 C1.98 0 3.96 0 6 0 C11.28 2.64 16.56 5.28 22 8 C28.27 10.97 34.54 13.94 41 17 C43.31 17.99 45.62 18.98 48 20 C54.435 22.97 54.435 22.97 61 26 C65.29 27.98 69.58 29.96 74 32 C76.31 32.99 78.62 33.98 81 35 C84.3 36.65 87.6 38.3 91 40 C95.95 41.98 95.95 41.98 101 44 C102.32 44.66 103.64 45.32 105 46 C104.34 47.65 103.68 49.3 103 51 C102.01 51.99 101.02 52.98 100 54 C97.69 53.67 95.38 53.34 93 53 C82.11 48.05 71.22 43.1 60 38 C53.4 35.03 46.8 32.06 40 29 C35.05 26.69 30.1 24.38 25 22 C21.7 20.35 18.4 18.7 15 17 C10.05 15.02 10.05 15.02 5 13 C0.71 11.02 -3.58 9.04 -8 7 C-7.67 6.01 -7.34 5.02 -7 4 C-4.69 2.68 -2.38 1.36 0 0 Z " transform="translate(320,108)" style="fill: #B95EE5;"/><path d="M0 0 C1.65 0.66 3.3 1.32 5 2 C6.65 3.32 8.3 4.64 10 6 C10 6.66 10 7.32 10 8 C5.38 10.31 0.76 12.62 -4 15 C-10.6 17.97 -17.2 20.94 -24 24 C-33.9 28.62 -43.8 33.24 -54 38 C-57.3 39.65 -60.6 41.3 -64 43 C-67.3 44.32 -70.6 45.64 -74 47 C-75.65 47.99 -77.3 48.98 -79 50 C-82.3 51.32 -85.6 52.64 -89 54 C-92.465 54.495 -92.465 54.495 -96 55 C-97.32 53.35 -98.64 51.7 -100 50 C-99.34 48.68 -98.68 47.36 -98 46 C-89.09 41.71 -80.18 37.42 -71 33 C-68.69 32.01 -66.38 31.02 -64 30 C-56.41 26.37 -48.82 22.74 -41 19 C-38.69 18.01 -36.38 17.02 -34 16 C-31.36 14.68 -28.72 13.36 -26 12 C-22.7 10.68 -19.4 9.36 -16 8 C-12.37 6.02 -8.74 4.04 -5 2 C-3.35 1.34 -1.7 0.68 0 0 Z " transform="translate(261,107)" style="fill: #CF71EB;"/><path d="M0 0 C1.65 0 3.3 0 5 0 C5 3.96 5 7.92 5 12 C-2.26 15.63 -9.52 19.26 -17 23 C-24.92 26.96 -24.92 26.96 -33 31 C-36.3 32.32 -39.6 33.64 -43 35 C-54.22 40.28 -65.44 45.56 -77 51 C-79.475 51.495 -79.475 51.495 -82 52 C-82 48.04 -82 44.08 -82 40 C-80.02 38.68 -78.04 37.36 -76 36 C-72.04 34.68 -68.08 33.36 -64 32 C-59.38 29.36 -54.76 26.72 -50 24 C-40.595 19.545 -40.595 19.545 -31 15 C-25.555 13.515 -25.555 13.515 -20 12 C-20 11.34 -20 10.68 -20 10 C-17.36 8.68 -14.72 7.36 -12 6 C-10.68 6 -9.36 6 -8 6 C-8 5.34 -8 4.68 -8 4 C-5.36 2.68 -2.72 1.36 0 0 Z " transform="translate(242,85)" style="fill: #632794;"/><path d="M0 0 C1.65 0.33 3.3 0.66 5 1 C9.95 2.98 9.95 2.98 15 5 C17.31 6.32 19.62 7.64 22 9 C23.65 9.99 25.3 10.98 27 12 C30.3 12.99 33.6 13.98 37 15 C37.99 15.66 38.98 16.32 40 17 C40 17.66 40 18.32 40 19 C41.32 19.33 42.64 19.66 44 20 C46.64 20.99 49.28 21.98 52 23 C54.31 23.99 56.62 24.98 59 26 C63.95 27.98 63.95 27.98 69 30 C70.65 30.66 72.3 31.32 74 32 C74 32.66 74 33.32 74 34 C75.65 34.33 77.3 34.66 79 35 C81.31 35.99 83.62 36.98 86 38 C86 42.29 86 46.58 86 51 C84.02 50.505 84.02 50.505 82 50 C80.02 49.34 78.04 48.68 76 48 C76 47.34 76 46.68 76 46 C74.02 45.67 72.04 45.34 70 45 C67.69 43.68 65.38 42.36 63 41 C60.69 40.34 58.38 39.68 56 39 C53.69 37.68 51.38 36.36 49 35 C45.7 33.68 42.4 32.36 39 31 C35.7 29.35 32.4 27.7 29 26 C25.37 24.35 21.74 22.7 18 21 C14.04 19.02 10.08 17.04 6 15 C3.69 14.01 1.38 13.02 -1 12 C-0.67 8.04 -0.34 4.08 0 0 Z " transform="translate(340,86)" style="fill: #571B90;"/><path d="M0 0 C2.475 0.495 2.475 0.495 5 1 C11.435 4.96 11.435 4.96 18 9 C21.3 10.65 24.6 12.3 28 14 C29.98 15.32 31.96 16.64 34 18 C34 32.19 34 46.38 34 61 C30.04 63.475 30.04 63.475 26 66 C18.575 69.96 18.575 69.96 11 74 C10.34 74 9.68 74 9 74 C9 74.66 9 75.32 9 76 C7.02 76.495 7.02 76.495 5 77 C2.36 77 -0.28 77 -3 77 C-11.25 72.71 -19.5 68.42 -28 64 C-28.99 63.34 -29.98 62.68 -31 62 C-31 56.72 -31 51.44 -31 46 C-30.67 46 -30.34 46 -30 46 C-30 50.95 -30 55.9 -30 61 C-28.515 60.505 -28.515 60.505 -27 60 C-26.67 59.34 -26.34 58.68 -26 58 C-25.34 58 -24.68 58 -24 58 C-24 58.66 -24 59.32 -24 60 C-21.525 57.525 -21.525 57.525 -19 55 C-17.35 55.66 -15.7 56.32 -14 57 C-10.37 58.98 -6.74 60.96 -3 63 C-0.03 64.485 -0.03 64.485 3 66 C3 65.34 3 64.68 3 64 C8.28 61.36 13.56 58.72 19 56 C19.99 56.495 19.99 56.495 21 57 C19.68 58.32 18.36 59.64 17 61 C18.32 60.34 19.64 59.68 21 59 C22.65 58.01 24.3 57.02 26 56 C26.33 46.1 26.66 36.2 27 26 C27.66 24.02 28.32 22.04 29 20 C27.02 19.34 25.04 18.68 23 18 C20.36 16.68 17.72 15.36 15 14 C11.04 11.03 7.08 8.06 3 5 C2.505 3.02 2.505 3.02 2 1 C1.34 0.67 0.68 0.34 0 0 Z " transform="translate(291,27)" style="fill: #A557DE;"/><path d="M0 0 C1.98 0.66 3.96 1.32 6 2 C8.97 3.65 11.94 5.3 15 7 C19.29 8.65 23.58 10.3 28 12 C28 12.66 28 13.32 28 14 C30.475 14.495 30.475 14.495 33 15 C39.93 17.475 39.93 17.475 47 20 C48.32 20.99 49.64 21.98 51 23 C53.64 23.99 56.28 24.98 59 26 C65.435 29.465 65.435 29.465 72 33 C76.29 34.65 80.58 36.3 85 38 C85 38.66 85 39.32 85 40 C85.66 40 86.32 40 87 40 C86.67 43.63 86.34 47.26 86 51 C84.35 50.34 82.7 49.68 81 49 C76.05 47.02 76.05 47.02 71 45 C66.71 43.02 62.42 41.04 58 39 C53.71 37.35 49.42 35.7 45 34 C43.68 33.01 42.36 32.02 41 31 C38.36 30.01 35.72 29.02 33 28 C33 27.34 33 26.68 33 26 C29.7 25.34 26.4 24.68 23 24 C19.04 22.02 15.08 20.04 11 18 C8.36 16.68 5.72 15.36 3 14 C2.01 13.01 1.02 12.02 0 11 C0 7.37 0 3.74 0 0 Z " transform="translate(160,464)" style="fill: #2F138C;"/><path d="M0 0 C0.99 0 1.98 0 3 0 C3 3.3 3 6.6 3 10 C2.01 10.99 1.02 11.98 0 13 C-6.93 15.97 -13.86 18.94 -21 22 C-24.3 23.65 -27.6 25.3 -31 27 C-34.3 28.32 -37.6 29.64 -41 31 C-41.66 31 -42.32 31 -43 31 C-43.33 31.99 -43.66 32.98 -44 34 C-49.28 35.98 -54.56 37.96 -60 40 C-62.97 41.32 -65.94 42.64 -69 44 C-69.66 44 -70.32 44 -71 44 C-71 44.66 -71 45.32 -71 46 C-74.3 47.32 -77.6 48.64 -81 50 C-81.66 50 -82.32 50 -83 50 C-83.33 48.68 -83.66 47.36 -84 46 C-84 43.69 -84 41.38 -84 39 C-81.03 37.35 -78.06 35.7 -75 34 C-68.4 31.03 -61.8 28.06 -55 25 C-50.38 22.69 -45.76 20.38 -41 18 C-36.05 16.02 -31.1 14.04 -26 12 C-23.03 10.35 -20.06 8.7 -17 7 C-15.02 6.34 -13.04 5.68 -11 5 C-7.37 3.35 -3.74 1.7 0 0 Z " transform="translate(423,465)" style="fill: #281185;"/><path d="M0 0 C0.99 0 1.98 0 3 0 C3.66 1.98 4.32 3.96 5 6 C8.63 7.98 12.26 9.96 16 12 C21.94 15.465 21.94 15.465 28 19 C28.33 19.33 28.66 19.66 29 20 C29 27.26 29 34.52 29 42 C28.67 46.62 28.34 51.24 28 56 C27.01 56.33 26.02 56.66 25 57 C24.67 56.01 24.34 55.02 24 54 C24.33 44.1 24.66 34.2 25 24 C23.35 23.67 21.7 23.34 20 23 C15.05 20.36 10.1 17.72 5 15 C3.02 15 1.04 15 -1 15 C-3.64 16.65 -6.28 18.3 -9 20 C-14.445 22.475 -14.445 22.475 -20 25 C-20.99 25.99 -21.98 26.98 -23 28 C-23.33 36.91 -23.66 45.82 -24 55 C-24.33 56.32 -24.66 57.64 -25 59 C-26.98 59.495 -26.98 59.495 -29 60 C-29 45.48 -29 30.96 -29 16 C-25.04 13.69 -21.08 11.38 -17 9 C-12.38 6.69 -7.76 4.38 -3 2 C-2.01 1.34 -1.02 0.68 0 0 Z " transform="translate(111,394)" style="fill: #864BE0;"/><path d="M0 0 C2.97 0.495 2.97 0.495 6 1 C7.32 1.66 8.64 2.32 10 3 C10 3.66 10 4.32 10 5 C12.97 5.99 15.94 6.98 19 8 C23.455 10.97 23.455 10.97 28 14 C29.98 15.65 31.96 17.3 34 19 C34 34.18 34 49.36 34 65 C32.35 66.32 30.7 67.64 29 69 C25.7 70.65 22.4 72.3 19 74 C11.08 78.455 11.08 78.455 3 83 C1.35 82.67 -0.3 82.34 -2 82 C-3.32 81.01 -4.64 80.02 -6 79 C-5.34 79 -4.68 79 -4 79 C-3.34 77.68 -2.68 76.36 -2 75 C-1.34 73.35 -0.68 71.7 0 70 C0.99 70.33 1.98 70.66 3 71 C2.505 71.495 2.505 71.495 2 72 C6.455 71.01 6.455 71.01 11 70 C13.97 68.02 16.94 66.04 20 64 C22.31 62.35 24.62 60.7 27 59 C27.33 46.46 27.66 33.92 28 21 C27.34 21 26.68 21 26 21 C26 20.34 26 19.68 26 19 C24.35 18.34 22.7 17.68 21 17 C18.69 15.35 16.38 13.7 14 12 C12.35 11.34 10.7 10.68 9 10 C6.69 8.68 4.38 7.36 2 6 C2 4.35 2 2.7 2 1 C1.34 0.67 0.68 0.34 0 0 Z " transform="translate(290,486)" style="fill: #5121C0;"/><path d="M0 0 C1.98 0.99 1.98 0.99 4 2 C4 60.41 4 118.82 4 179 C2.68 179.33 1.36 179.66 0 180 C0 120.6 0 61.2 0 0 Z " transform="translate(102,214)" style="fill: #C78FEF;"/><path d="M0 0 C2.475 0.99 2.475 0.99 5 2 C10.28 4.64 15.56 7.28 21 10 C21.99 10.99 22.98 11.98 24 13 C27.96 15.475 27.96 15.475 32 18 C32 32.19 32 46.38 32 61 C27.38 63.64 22.76 66.28 18 69 C17.34 68.67 16.68 68.34 16 68 C17.98 66.35 19.96 64.7 22 63 C21.34 62.01 20.68 61.02 20 60 C20.99 59.01 21.98 58.02 23 57 C23.99 57 24.98 57 26 57 C25.505 45.615 25.505 45.615 25 34 C24.67 33.34 24.34 32.68 24 32 C23.67 34.97 23.34 37.94 23 41 C22.67 41 22.34 41 22 41 C22 35.39 22 29.78 22 24 C20.02 23.34 18.04 22.68 16 22 C14.68 21.01 13.36 20.02 12 19 C13.32 19 14.64 19 16 19 C15.67 17.35 15.34 15.7 15 14 C11.7 12.35 8.4 10.7 5 9 C5 8.34 5 7.68 5 7 C2.525 6.01 2.525 6.01 0 5 C0 3.35 0 1.7 0 0 Z " transform="translate(471,394)" style="fill: #5922BD;"/><path d="M0 0 C1.65 0 3.3 0 5 0 C8.465 1.485 8.465 1.485 12 3 C12 3.99 12 4.98 12 6 C11.01 7.65 10.02 9.3 9 11 C7.68 11.99 6.36 12.98 5 14 C4.67 14.99 4.34 15.98 4 17 C5.32 17.66 6.64 18.32 8 19 C8.33 21.31 8.66 23.62 9 26 C7.68 27.32 6.36 28.64 5 30 C3.35 29.67 1.7 29.34 0 29 C-1.65 27.35 -3.3 25.7 -5 24 C-5 23.34 -5 22.68 -5 22 C-6.65 22 -8.3 22 -10 22 C-10.66 19.69 -11.32 17.38 -12 15 C-11.67 13.02 -11.34 11.04 -11 9 C-10.34 8.34 -9.68 7.68 -9 7 C-7.68 6.67 -6.36 6.34 -5 6 C-3.35 4.02 -1.7 2.04 0 0 Z M12 9 C13.65 9 15.3 9 17 9 C17.33 9.33 17.66 9.66 18 10 C18 12.64 18 15.28 18 18 C17.67 18.66 17.34 19.32 17 20 C15.35 19.67 13.7 19.34 12 19 C11.01 18.01 10.02 17.02 9 16 C9 14.35 9 12.7 9 11 C9.99 10.34 10.98 9.68 12 9 Z " transform="translate(289,52)" style="fill: #9351B7;"/><path d="M0 0 C1.98 0 3.96 0 6 0 C6 2.31 6 4.62 6 7 C5.01 7.66 4.02 8.32 3 9 C2.01 9 1.02 9 0 9 C0 13.62 0 18.24 0 23 C-0.33 23.33 -0.66 23.66 -1 24 C-4.96 24 -8.92 24 -13 24 C-13 25.65 -13 27.3 -13 29 C-13.99 29 -14.98 29 -16 29 C-16 27.35 -16 25.7 -16 24 C-17.98 24 -19.96 24 -22 24 C-22 17.4 -22 10.8 -22 4 C-15.07 4 -8.14 4 -1 4 C-0.01 4.66 0.98 5.32 2 6 C1.34 5.01 0.68 4.02 0 3 C0 2.01 0 1.02 0 0 Z " transform="translate(124,419)" style="fill: #5D34A5;"/><path d="M0 0 C2.97 0 5.94 0 9 0 C10.98 1.32 12.96 2.64 15 4 C15.99 5.485 15.99 5.485 17 7 C17 9.64 17 12.28 17 15 C16.01 16.98 15.02 18.96 14 21 C12.02 21.99 10.04 22.98 8 24 C5.69 24 3.38 24 1 24 C-0.65 23.01 -2.3 22.02 -4 21 C-4.66 19.68 -5.32 18.36 -6 17 C-6.66 17 -7.32 17 -8 17 C-8 14.03 -8 11.06 -8 8 C-6.02 5.69 -4.04 3.38 -2 1 C-1.34 0.67 -0.68 0.34 0 0 Z " transform="translate(63,288)" style="fill: #6D43A2;"/><path d="M0 0 C2.97 0 5.94 0 9 0 C10.98 1.32 12.96 2.64 15 4 C15.99 5.485 15.99 5.485 17 7 C17 10.3 17 13.6 17 17 C15.68 18.65 14.36 20.3 13 22 C11.02 22.99 11.02 22.99 9 24 C6.36 24 3.72 24 1 24 C-0.98 22.68 -2.96 21.36 -5 20 C-5.66 18.35 -6.32 16.7 -7 15 C-6.67 12.03 -6.34 9.06 -6 6 C-4.35 4.35 -2.7 2.7 -1 1 C-0.67 0.67 -0.34 0.34 0 0 Z " transform="translate(513,288)" style="fill: #5F329E;"/><path d="M0 0 C8.25 0 16.5 0 25 0 C25 6.27 25 12.54 25 19 C23.02 19.66 21.04 20.32 19 21 C18.67 20.01 18.34 19.02 18 18 C14.04 17.67 10.08 17.34 6 17 C5.67 17.99 5.34 18.98 5 20 C3.35 20 1.7 20 0 20 C0 13.4 0 6.8 0 0 Z " transform="translate(101,150)" style="fill: #AB60D2;"/><path d="M0 0 C3.96 1.98 7.92 3.96 12 6 C15.96 8.475 15.96 8.475 20 11 C24.95 12.98 24.95 12.98 30 15 C30.33 15.33 30.66 15.66 31 16 C31 30.19 31 44.38 31 59 C30.01 59.495 30.01 59.495 29 60 C29 56.04 29 52.08 29 48 C28.505 47.505 28.505 47.505 28 47 C27.01 49.475 27.01 49.475 26 52 C25.67 52 25.34 52 25 52 C24.505 39.625 24.505 39.625 24 27 C23.67 26.01 23.34 25.02 23 24 C21.35 23.67 19.7 23.34 18 23 C17.01 22.01 16.02 21.02 15 20 C15 17.69 15 15.38 15 13 C12.525 12.01 12.525 12.01 10 11 C7.36 9.35 4.72 7.7 2 6 C1.34 5.34 0.68 4.68 0 4 C0 2.68 0 1.36 0 0 Z " transform="translate(472,122)" style="fill: #9537CF;"/><path d="M0 0 C0.99 0 1.98 0 3 0 C3 1.32 3 2.64 3 4 C-1.62 6.97 -6.24 9.94 -11 13 C-14.63 14.98 -18.26 16.96 -22 19 C-22.33 33.85 -22.66 48.7 -23 64 C-23.495 64.99 -23.495 64.99 -24 66 C-25.32 65.67 -26.64 65.34 -28 65 C-28 48.83 -28 32.66 -28 16 C-21.73 12.37 -15.46 8.74 -9 5 C-6.03 3.35 -3.06 1.7 0 0 Z " transform="translate(288,487)" style="fill: #A186E5;"/><path d="M0 0 C2.475 0.99 2.475 0.99 5 2 C7.31 2.33 9.62 2.66 12 3 C12.33 3.99 12.66 4.98 13 6 C13 64.08 13 122.16 13 182 C7.06 182.99 7.06 182.99 1 184 C0.67 179.71 0.34 175.42 0 171 C2.31 171 4.62 171 7 171 C8.65 171.33 10.3 171.66 12 172 C11.67 118.54 11.34 65.08 11 10 C8.69 10.33 6.38 10.66 4 11 C2.68 9.02 1.36 7.04 0 5 C0 3.35 0 1.7 0 0 Z " transform="translate(463,209)" style="fill: #5A33B4;"/><path d="M0 0 C0.33 0 0.66 0 1 0 C1.33 11.22 1.66 22.44 2 34 C8.435 37.96 8.435 37.96 15 42 C16.32 42.99 17.64 43.98 19 45 C18.67 46.65 18.34 48.3 18 50 C17.01 51.32 16.02 52.64 15 54 C13.35 53.67 11.7 53.34 10 53 C3.73 49.7 -2.54 46.4 -9 43 C-8.01 42.505 -8.01 42.505 -7 42 C-6.67 38.04 -6.34 34.08 -6 30 C-5.01 28.35 -4.02 26.7 -3 25 C-2.34 24.67 -1.68 24.34 -1 24 C-0.67 16.08 -0.34 8.16 0 0 Z " transform="translate(271,511)" style="fill: #5A3ACE;"/><path d="M0 0 C1.32 0.33 2.64 0.66 4 1 C2.68 1.99 1.36 2.98 0 4 C-0.99 4 -1.98 4 -3 4 C-3 61.09 -3 118.18 -3 177 C-3.66 177 -4.32 177 -5 177 C-5 119.58 -5 62.16 -5 3 C-3.35 2.01 -1.7 1.02 0 0 Z " transform="translate(143,206)" style="fill: #A486D9;"/><path d="M0 0 C1.65 0 3.3 0 5 0 C4.67 1.32 4.34 2.64 4 4 C-0.95 6.97 -0.95 6.97 -6 10 C-8.31 11.32 -10.62 12.64 -13 14 C-15.64 15.98 -18.28 17.96 -21 20 C-21.33 32.54 -21.66 45.08 -22 58 C-22.66 58.66 -23.32 59.32 -24 60 C-24.66 59.67 -25.32 59.34 -26 59 C-26.495 51.575 -26.495 51.575 -27 44 C-27 34.43 -27 24.86 -27 15 C-22.38 12.36 -17.76 9.72 -13 7 C-9.37 5.02 -5.74 3.04 -2 1 C-1.34 0.67 -0.68 0.34 0 0 Z " transform="translate(287,29)" style="fill: #E09FF1;"/><path d="M0 0 C2.475 0.495 2.475 0.495 5 1 C7.475 2.485 7.475 2.485 10 4 C12.475 6.475 12.475 6.475 15 9 C19.29 12.3 23.58 15.6 28 19 C27.67 20.32 27.34 21.64 27 23 C25.68 23 24.36 23 23 23 C19.7 20.36 16.4 17.72 13 15 C10.03 12.69 7.06 10.38 4 8 C2.35 8.33 0.7 8.66 -1 9 C-6.94 13.95 -6.94 13.95 -13 19 C-16.465 21.475 -16.465 21.475 -20 24 C-20.66 24 -21.32 24 -22 24 C-22 23.34 -22 22.68 -22 22 C-22.66 22 -23.32 22 -24 22 C-23.67 20.68 -23.34 19.36 -23 18 C-19.37 15.36 -15.74 12.72 -12 10 C-8.37 7.03 -4.74 4.06 -1 1 C-0.67 0.67 -0.34 0.34 0 0 Z " transform="translate(291,366)" style="fill: #6F3CC5;"/><path d="M0 0 C1.98 0.495 1.98 0.495 4 1 C7.63 3.64 11.26 6.28 15 9 C17.31 10.98 19.62 12.96 22 15 C23.32 14.67 24.64 14.34 26 14 C29.96 11.03 33.92 8.06 38 5 C41.465 2.525 41.465 2.525 45 0 C46.32 0.33 47.64 0.66 49 1 C49 2.32 49 3.64 49 5 C46.03 7.31 43.06 9.62 40 12 C35.38 15.3 30.76 18.6 26 22 C24.02 21.67 22.04 21.34 20 21 C15.05 17.04 10.1 13.08 5 9 C3.02 7.68 1.04 6.36 -1 5 C-0.67 3.35 -0.34 1.7 0 0 Z " transform="translate(269,208)" style="fill: #A35BDE;"/><path d="M0 0 C1.65 0 3.3 0 5 0 C4.67 1.32 4.34 2.64 4 4 C-0.95 6.97 -0.95 6.97 -6 10 C-7.32 11.32 -8.64 12.64 -10 14 C-12.31 14.66 -14.62 15.32 -17 16 C-18.65 17.32 -20.3 18.64 -22 20 C-22.33 33.2 -22.66 46.4 -23 60 C-24.32 59.67 -25.64 59.34 -27 59 C-27 44.81 -27 30.62 -27 16 C-22.71 13.36 -18.42 10.72 -14 8 C-9.38 5.36 -4.76 2.72 0 0 Z " transform="translate(466,123)" style="fill: #D593F1;"/><path d="M0 0 C1.32 0 2.64 0 4 0 C3.67 1.32 3.34 2.64 3 4 C1.35 5.32 -0.3 6.64 -2 8 C-4.97 9.65 -7.94 11.3 -11 13 C-14.63 14.98 -18.26 16.96 -22 19 C-22 32.2 -22 45.4 -22 59 C-24.475 59.495 -24.475 59.495 -27 60 C-27 45.15 -27 30.3 -27 15 C-18.42 10.38 -9.84 5.76 -1 1 C-0.67 0.67 -0.34 0.34 0 0 Z " transform="translate(466,395)" style="fill: #AA85E8;"/><path d="M0 0 C0.66 0 1.32 0 2 0 C2 1.65 2 3.3 2 5 C-0.31 6.32 -2.62 7.64 -5 9 C-11.27 12.63 -17.54 16.26 -24 20 C-24 31.55 -24 43.1 -24 55 C-24.33 56.32 -24.66 57.64 -25 59 C-26.98 59.495 -26.98 59.495 -29 60 C-29 45.48 -29 30.96 -29 16 C-25.04 13.69 -21.08 11.38 -17 9 C-12.38 6.69 -7.76 4.38 -3 2 C-2.01 1.34 -1.02 0.68 0 0 Z " transform="translate(111,394)" style="fill: #B98BF0;"/><path d="M0 0 C3.96 0 7.92 0 12 0 C12 1.32 12 2.64 12 4 C18.435 3.505 18.435 3.505 25 3 C25 6.3 25 9.6 25 13 C22.03 13 19.06 13 16 13 C16 15.97 16 18.94 16 22 C15.34 22 14.68 22 14 22 C13.01 20.35 12.02 18.7 11 17 C11 14.69 11 12.38 11 10 C14.63 9.67 18.26 9.34 22 9 C22 8.34 22 7.68 22 7 C17.38 7.66 12.76 8.32 8 9 C7.34 9.66 6.68 10.32 6 11 C4.35 11 2.7 11 1 11 C-0.32 10.01 -1.64 9.02 -3 8 C-1.35 9.98 0.3 11.96 2 14 C4.64 14.33 7.28 14.66 10 15 C10 15.99 10 16.98 10 18 C7.36 18 4.72 18 2 18 C-0.64 15.69 -3.28 13.38 -6 11 C-6 9.35 -6 7.7 -6 6 C-4.35 5.34 -2.7 4.68 -1 4 C-0.67 2.68 -0.34 1.36 0 0 Z " transform="translate(465,151)" style="fill: #A76DD4;"/><path d="M0 0 C0.99 0.33 1.98 0.66 3 1 C1.35 2.98 -0.3 4.96 -2 7 C-0.68 7.33 0.64 7.66 2 8 C-1.96 10.475 -1.96 10.475 -6 13 C-6 23.56 -6 34.12 -6 45 C-6.99 45.99 -7.98 46.98 -9 48 C-9.66 48 -10.32 48 -11 48 C-11 47.34 -11 46.68 -11 46 C-11.66 46 -12.32 46 -13 46 C-13 34.12 -13 22.24 -13 10 C-11.02 8.35 -9.04 6.7 -7 5 C-4.69 3.35 -2.38 1.7 0 0 Z " transform="translate(278,39)" style="fill: #C66AE6;"/><path d="M0 0 C1.65 0 3.3 0 5 0 C5.33 2.31 5.66 4.62 6 7 C10.29 7.33 14.58 7.66 19 8 C18.67 8.66 18.34 9.32 18 10 C15.36 10.33 12.72 10.66 10 11 C9.01 12.32 8.02 13.64 7 15 C6.01 15.33 5.02 15.66 4 16 C4 17.98 4 19.96 4 22 C4.99 22.33 5.98 22.66 7 23 C7.33 25.31 7.66 27.62 8 30 C8 31.32 8 32.64 8 34 C6.02 34.495 6.02 34.495 4 35 C2.02 34.01 0.04 33.02 -2 32 C-2 21.77 -2 11.54 -2 1 C-1.34 0.67 -0.68 0.34 0 0 Z " transform="translate(452,417)" style="fill: #040224;"/><path d="M0 0 C16.17 0 32.34 0 49 0 C49 0.33 49 0.66 49 1 C33.16 1 17.32 1 1 1 C1.33 23.11 1.66 45.22 2 68 C2.33 77.57 2.66 87.14 3 97 C3 101.62 3 106.24 3 111 C2.67 115.95 2.34 120.9 2 126 C1.67 135.9 1.34 145.8 1 156 C0.67 156 0.34 156 0 156 C0 104.52 0 53.04 0 0 Z " transform="translate(191,218)" style="fill: #6444A2;"/><path d="M0 0 C1.32 0.66 2.64 1.32 4 2 C6.97 2.99 9.94 3.98 13 5 C13.33 6.98 13.66 8.96 14 11 C13.67 11.33 13.34 11.66 13 12 C10.69 11.67 8.38 11.34 6 11 C4.35 9.68 2.7 8.36 1 7 C0.67 66.07 0.34 125.14 0 186 C-0.33 186 -0.66 186 -1 186 C-1 125.28 -1 64.56 -1 2 C-0.67 1.34 -0.34 0.68 0 0 Z " transform="translate(102,208)" style="fill: #714E92;"/><path d="M0 0 C1.98 0 3.96 0 6 0 C7.98 1.65 9.96 3.3 12 5 C12 7.97 12 10.94 12 14 C10.35 15.32 8.7 16.64 7 18 C4.69 18.33 2.38 18.66 0 19 C-1.65 17.35 -3.3 15.7 -5 14 C-5.33 13.67 -5.66 13.34 -6 13 C-6 10.69 -6 8.38 -6 6 C-4.35 4.35 -2.7 2.7 -1 1 C-0.67 0.67 -0.34 0.34 0 0 Z " transform="translate(110,494)" style="fill: #3D279F;"/><path d="M0 0 C2.64 0 5.28 0 8 0 C9.65 1.32 11.3 2.64 13 4 C13 6.97 13 9.94 13 13 C11.68 14.32 10.36 15.64 9 17 C5.7 17 2.4 17 -1 17 C-2.32 15.35 -3.64 13.7 -5 12 C-5 9.69 -5 7.38 -5 5 C-3.35 3.35 -1.7 1.7 0 0 Z " transform="translate(468,495)" style="fill: #352098;"/><path d="M0 0 C5.61 0 11.22 0 17 0 C17 9.24 17 18.48 17 28 C15.68 28 14.36 28 13 28 C13 20.08 13 12.16 13 4 C10.03 4 7.06 4 4 4 C4 11.92 4 19.84 4 28 C2.68 28 1.36 28 0 28 C0 18.76 0 9.52 0 0 Z " transform="translate(284,514)" style="fill: #7242C9;"/><path d="M0 0 C1.98 0 3.96 0 6 0 C7.98 1.65 9.96 3.3 12 5 C12 7.64 12 10.28 12 13 C10.35 14.65 8.7 16.3 7 18 C4.36 18 1.72 18 -1 18 C-2.32 16.35 -3.64 14.7 -5 13 C-5.33 10.69 -5.66 8.38 -6 6 C-4.68 4.35 -3.36 2.7 -2 1 C-1.34 0.67 -0.68 0.34 0 0 Z " transform="translate(469,83)" style="fill: #9457B9;"/><path d="M0 0 C2.31 0 4.62 0 7 0 C8.65 1.65 10.3 3.3 12 5 C12 7.64 12 10.28 12 13 C10.35 14.32 8.7 15.64 7 17 C4.36 17 1.72 17 -1 17 C-2.65 15.35 -4.3 13.7 -6 12 C-6 9.36 -6 6.72 -6 4 C-5.01 3.01 -4.02 2.02 -3 1 C-2.01 0.67 -1.02 0.34 0 0 Z " transform="translate(110,84)" style="fill: #9861B9;"/><path d="M0 0 C0.66 0.33 1.32 0.66 2 1 C2.33 61.06 2.66 121.12 3 183 C2.67 184.32 2.34 185.64 2 187 C-0.97 186.01 -3.94 185.02 -7 184 C-8.65 184.33 -10.3 184.66 -12 185 C-12.66 185.33 -13.32 185.66 -14 186 C-14 184.68 -14 183.36 -14 182 C-12.02 181.01 -12.02 181.01 -10 180 C-7.69 180 -5.38 180 -3 180 C-1.68 180.66 -0.36 181.32 1 182 C1 122.6 1 63.2 1 2 C0.34 1.67 -0.32 1.34 -1 1 C-0.67 0.67 -0.34 0.34 0 0 Z M-5 1 C-4.34 2.32 -3.68 3.64 -3 5 C-3.66 5.66 -4.32 6.32 -5 7 C-5 5.02 -5 3.04 -5 1 Z " transform="translate(121,211)" style="fill: #241460;"/><path d="M0 0 C1.32 0.33 2.64 0.66 4 1 C8.455 2.98 8.455 2.98 13 5 C13.66 5.33 14.32 5.66 15 6 C15 6.66 15 7.32 15 8 C17.475 8.495 17.475 8.495 20 9 C21.65 9.99 23.3 10.98 25 12 C26.65 12.66 28.3 13.32 30 14 C30.66 14.66 31.32 15.32 32 16 C32 30.52 32 45.04 32 60 C31.34 59.67 30.68 59.34 30 59 C30 45.8 30 32.6 30 19 C29.01 21.97 28.02 24.94 27 28 C26.67 28 26.34 28 26 28 C25.67 25.03 25.34 22.06 25 19 C21.04 16.69 17.08 14.38 13 12 C9.37 10.02 5.74 8.04 2 6 C1.34 5.34 0.68 4.68 0 4 C0 2.68 0 1.36 0 0 Z " transform="translate(114,395)" style="fill: #5D22AF;"/><path d="M0 0 C0.99 0 1.98 0 3 0 C3.66 0.99 4.32 1.98 5 3 C5.33 30.06 5.66 57.12 6 85 C5.67 118 5.34 151 5 185 C4.67 185 4.34 185 4 185 C3.67 125.27 3.34 65.54 3 4 C0.525 5.485 0.525 5.485 -2 7 C-2 6.01 -2 5.02 -2 4 C-4.31 4 -6.62 4 -9 4 C-9 3.67 -9 3.34 -9 3 C-6.03 2.01 -3.06 1.02 0 0 Z " transform="translate(119,208)" style="fill: #090335;"/><path d="M0 0 C2.475 0.495 2.475 0.495 5 1 C11.435 4.96 11.435 4.96 18 9 C21.3 10.65 24.6 12.3 28 14 C29.98 15.32 31.96 16.64 34 18 C34 32.19 34 46.38 34 61 C33.67 61 33.34 61 33 61 C32.67 50.77 32.34 40.54 32 30 C31.505 25.05 31.505 25.05 31 20 C28.69 19.67 26.38 19.34 24 19 C22.68 18.01 21.36 17.02 20 16 C18.35 15.34 16.7 14.68 15 14 C11.04 11.03 7.08 8.06 3 5 C2.67 3.68 2.34 2.36 2 1 C1.34 0.67 0.68 0.34 0 0 Z " transform="translate(291,27)" style="fill: #8C37C2;"/><path d="M0 0 C2.64 0 5.28 0 8 0 C8.33 1.32 8.66 2.64 9 4 C8.67 4.33 8.34 4.66 8 5 C10.97 5.495 10.97 5.495 14 6 C17.96 6 21.92 6 26 6 C25.67 7.32 25.34 8.64 25 10 C20.71 10 16.42 10 12 10 C11.34 11.65 10.68 13.3 10 15 C9.34 15.66 8.68 16.32 8 17 C4.37 17 0.74 17 -3 17 C-2.34 14.69 -1.68 12.38 -1 10 C-2.65 9.67 -4.3 9.34 -6 9 C-6 8.01 -6 7.02 -6 6 C-3.69 6 -1.38 6 1 6 C1.66 6.33 2.32 6.66 3 7 C3.33 8.98 3.66 10.96 4 13 C5.32 13.33 6.64 13.66 8 14 C7.34 12.35 6.68 10.7 6 9 C5.67 7.68 5.34 6.36 5 5 C2.525 4.01 2.525 4.01 0 3 C0 2.01 0 1.02 0 0 Z " transform="translate(462,428)" style="fill: #6635BF;"/><path d="M0 0 C1.98 0.66 3.96 1.32 6 2 C5.67 3.98 5.34 5.96 5 8 C4.67 17.9 4.34 27.8 4 38 C2.02 39.32 0.04 40.64 -2 42 C-2.66 42.66 -3.32 43.32 -4 44 C-4.99 43.67 -5.98 43.34 -7 43 C-5.35 41.02 -3.7 39.04 -2 37 C-1.34 37 -0.68 37 0 37 C0 26.77 0 16.54 0 6 C-1.65 5.67 -3.3 5.34 -5 5 C-5.99 4.01 -6.98 3.02 -8 2 C-5.03 2.495 -5.03 2.495 -2 3 C-1.34 2.01 -0.68 1.02 0 0 Z " transform="translate(314,45)" style="fill: #BB71E0;"/><path d="M0 0 C4.29 0 8.58 0 13 0 C13.33 1.98 13.66 3.96 14 6 C12.68 6.33 11.36 6.66 10 7 C8.68 6.01 7.36 5.02 6 4 C7.32 5.65 8.64 7.3 10 9 C10.99 9.66 11.98 10.32 13 11 C13 11.66 13 12.32 13 13 C12.01 13.495 12.01 13.495 11 14 C11.66 14.66 12.32 15.32 13 16 C10.36 16 7.72 16 5 16 C4.67 16.99 4.34 17.98 4 19 C2.68 19 1.36 19 0 19 C0 12.73 0 6.46 0 0 Z " transform="translate(102,151)" style="fill: #CA7EF3;"/><path d="M0 0 C0.99 0.33 1.98 0.66 3 1 C2.01 1.66 1.02 2.32 0 3 C-0.66 4.65 -1.32 6.3 -2 8 C-2.66 9.32 -3.32 10.64 -4 12 C-9.445 14.475 -9.445 14.475 -15 17 C-15.99 17.99 -16.98 18.98 -18 20 C-18.33 27.92 -18.66 35.84 -19 44 C-19.33 44 -19.66 44 -20 44 C-20 33.44 -20 22.88 -20 12 C-15.71 9.36 -11.42 6.72 -7 4 C-4.69 2.68 -2.38 1.36 0 0 Z " transform="translate(106,402)" style="fill: #9B58E7;"/><path d="M0 0 C0.66 0.33 1.32 0.66 2 1 C1.67 36.31 1.34 71.62 1 108 C0.67 108.33 0.34 108.66 0 109 C-14.52 109 -29.04 109 -44 109 C-44 108.67 -44 108.34 -44 108 C-22.715 107.01 -22.715 107.01 -1 106 C-0.67 71.02 -0.34 36.04 0 0 Z " transform="translate(235,266)" style="fill: #29146B;"/><path d="M0 0 C1.32 0.33 2.64 0.66 4 1 C4 2.32 4 3.64 4 5 C1.03 7.31 -1.94 9.62 -5 12 C-8.96 14.97 -12.92 17.94 -17 21 C-18.65 21 -20.3 21 -22 21 C-22.33 20.01 -22.66 19.02 -23 18 C-21.02 16.68 -19.04 15.36 -17 14 C-15.35 12.35 -13.7 10.7 -12 9 C-8.04 6.03 -4.08 3.06 0 0 Z " transform="translate(314,208)" style="fill: #AA53DA;"/></svg>